<?xml version="1.0" encoding="UTF-8"?>
<svg width="52px" height="52px" viewBox="0 0 52 52" version="1.1" xmlns="http://www.w3.org/2000/svg" xmlns:xlink="http://www.w3.org/1999/xlink">
    <title>Group</title>
    <g id="Page-1" stroke="none" stroke-width="1" fill="none" fill-rule="evenodd">
        <g id="Group">
            <circle id="Oval" fill="#D8D8D8" cx="26" cy="26" r="26"></circle>
            <g id="Logo" transform="translate(9.270000, 21.200000)" fill="#FFFFFF" fill-rule="nonzero">
                <polygon id="L" points="0 9.8 6.944 9.8 6.944 8.26 1.82 8.26 1.82 0 0 0"></polygon>
                <path d="M11.508,9.898 C13.832,9.898 15.498,8.302 15.498,6.062 C15.498,3.822 13.832,2.24 11.508,2.24 C9.212,2.24 7.532,3.822 7.532,6.062 C7.532,8.302 9.212,9.898 11.508,9.898 Z M11.508,8.4 C10.248,8.4 9.296,7.49 9.296,6.062 C9.296,4.634 10.248,3.724 11.508,3.724 C12.782,3.724 13.734,4.634 13.734,6.062 C13.734,7.49 12.782,8.4 11.508,8.4 Z" id="o"></path>
                <path d="M22.932,2.324 L22.932,3.318 C22.316,2.576 21.392,2.24 20.342,2.24 C18.2,2.24 16.562,3.668 16.562,5.838 C16.562,8.008 18.2,9.464 20.342,9.464 C21.35,9.464 22.232,9.142 22.848,8.47 L22.848,8.862 C22.848,10.374 22.12,11.13 20.468,11.13 C19.432,11.13 18.368,10.78 17.71,10.234 L16.926,11.55 C17.78,12.25 19.166,12.614 20.566,12.614 C23.184,12.614 24.598,11.382 24.598,8.666 L24.598,2.324 L22.932,2.324 Z M20.608,7.98 C19.278,7.98 18.326,7.112 18.326,5.838 C18.326,4.578 19.278,3.724 20.608,3.724 C21.924,3.724 22.876,4.578 22.876,5.838 C22.876,7.112 21.924,7.98 20.608,7.98 Z" id="g"></path>
                <path d="M30.254,9.898 C32.578,9.898 34.244,8.302 34.244,6.062 C34.244,3.822 32.578,2.24 30.254,2.24 C27.958,2.24 26.278,3.822 26.278,6.062 C26.278,8.302 27.958,9.898 30.254,9.898 Z M30.254,8.4 C28.994,8.4 28.042,7.49 28.042,6.062 C28.042,4.634 28.994,3.724 30.254,3.724 C31.528,3.724 32.48,4.634 32.48,6.062 C32.48,7.49 31.528,8.4 30.254,8.4 Z" id="o"></path>
            </g>
        </g>
    </g>
</svg>